PathFileType	4	(X/Y/Z)	T1_P2_Vision_NoMovement_4_0-734.trc
DataRate	CameraRate	NumFrames	NumMarkers	Units	OrigDataRate	OrigDataStartFrame	OrigNumFrames
60	60	4	27	m	60	275	734
Frame#	Time	RHip			RKnee			RAnkle			RBigToe			RSmallToe			RHeel			LHip			LKnee			LAnkle			LBigToe			LSmallToe			LHeel			Neck			Head			Nose			RShoulder			RElbow			RWrist			RThumb			RIndex			RPinky			LShoulder			LElbow			LWrist			LThumb			LIndex			LPinky		
		X1	Y1	Z1	X2	Y2	Z2	X3	Y3	Z3	X4	Y4	Z4	X5	Y5	Z5	X6	Y6	Z6	X7	Y7	Z7	X8	Y8	Z8	X9	Y9	Z9	X10	Y10	Z10	X11	Y11	Z11	X12	Y12	Z12	X13	Y13	Z13	X14	Y14	Z14	X15	Y15	Z15	X16	Y16	Z16	X17	Y17	Z17	X18	Y18	Z18	X19	Y19	Z19	X20	Y20	Z20	X21	Y21	Z21	X22	Y22	Z22	X23	Y23	Z23	X24	Y24	Z24	X25	Y25	Z25	X26	Y26	Z26	X27	Y27	Z27
276	4.6	462.7131888400844	3731.0677522856836	658.7310517551088	850.020941851433	3769.833897242762	656.4066460482582	1207.8727685312272	3733.3333419461846	675.3012107810958	1294.972737049649	3645.5946188805933	650.6718862284275	1286.4975492333745	3691.565914021778	607.1421735259175	1273.8222218748067	3788.70295214496	744.4348603567436	463.97380876599186	3623.098691184274	847.5759533850588	854.2969105408861	3637.879471038515	852.287526349278	1229.589610956844	3669.267665011413	850.8444938954553	1309.3629442970325	3561.8991928313744	811.98975566211	1275.9919579823757	3533.4391296036056	843.3179142781999	1253.5831735574222	3696.523003652654	852.3801413420188	-125.6407759248333	3649.616800807014	758.7841897956275	-387.71430818580694	3574.309238557356	689.1574913334258	-236.4804595999469	3510.481845602179	660.2513469962776	-40.80137655446679	3707.990684937003	617.1537794823907	200.83719552954668	3677.781334837174	529.0759245912368	356.63159884338387	3559.5144727355387	631.9713578422417	409.2484737244711	3497.8029530494946	692.3677923028655	426.6733605224764	3498.2787469862337	719.0047372153822	463.51828447578674	3500.791398652002	702.7730755065605	-38.66488076944895	3590.157730165778	914.2640493471226	227.3327102053161	3504.2763037036316	911.034763137356	373.05998150227026	3449.3492778427812	724.8638865155823	409.9361818358603	3459.773110096352	631.2588071157002	438.9249410595652	3448.0149938199465	618.8972115276246	470.00492558930586	3476.1795824477717	700.035309548824
277	4.616666666666666	459.5829974823056	3711.2886445669455	648.5118322553384	838.7541632590156	3742.927962700429	649.2233111770514	1207.2203741264989	3731.2754457433166	676.1417999144248	1302.8826475288604	3661.29838299315	664.0098064859526	1286.703560102665	3691.784750046444	607.2424254657074	1273.8813488617711	3788.5250778344302	744.5008058046586	460.25637148563567	3627.4206861861494	850.0505018394263	854.4203400433552	3638.009350893292	852.3153127720333	1226.7278015910038	3675.03856090443	854.2054084083056	1309.7402592586957	3562.3193854309075	811.8755197158995	1283.285003510428	3537.617183054243	844.4695760848671	1257.8820985036707	3706.3867246545915	856.9325040701135	-125.48232054837884	3651.542821056865	754.461121561426	-387.7249599482711	3574.2152945506846	689.0774770732705	-240.72199126346655	3514.1774287500675	662.3631695114824	-40.85959419233098	3707.780543426077	616.8601422965149	200.80104213639018	3677.5909340757116	529.0236199864418	361.28222176191326	3561.1381621496307	633.0720443050125	406.8146357521332	3508.8535388184205	704.7093118197699	429.95663851963144	3497.4776562855786	714.1523425183389	460.6657644339369	3510.983019954065	714.1750900295876	-38.76715755187074	3590.4201920175524	914.4932346589587	227.29351752675313	3504.257285172634	911.0119359642745	368.3170128802165	3445.312395431944	723.2045837243933	404.49989866124275	3456.1178422615726	630.1208922283281	438.7377566661155	3447.988667569673	618.8506740363356	469.84189763919653	3476.530718931077	700.1136970025567
278	4.633333333333334	454.23692499870754	3707.0968611387666	651.8575362376477	832.9578846864223	3741.113163776697	647.982596139301	1201.4565656567856	3729.190362072423	674.329685192878	1297.5444955487135	3658.8865613619764	662.0152962844767	1286.2778790814539	3691.3047707967976	607.1547334691878	1267.801443836615	3784.1157921926974	743.2534897813299	460.15110848389946	3627.4992115931664	850.061448341244	849.0986654697784	3636.5644920956465	851.0125699632296	1229.6308640641812	3669.410703353389	850.9221783304995	1310.076737060511	3562.9699084613094	812.337372602896	1283.3017400867975	3537.966070444256	844.6788946422334	1257.9267085587026	3706.6048247234394	857.1179647320419	-125.538701530718	3651.5962230398377	754.5351041228718	-387.72628683226975	3574.475614820657	689.2596092815032	-236.22906814753242	3510.3609050182336	660.1652399106645	-40.84089537203196	3707.942619401197	616.9698902604622	200.81731530377388	3677.5651955187295	529.0126884176458	356.67028002706337	3559.612813756276	632.1176183230198	412.3953116056842	3512.8838132235906	706.0767467947675	429.8300822555175	3495.2939251785956	717.2062345431953	466.306172925682	3515.0591418599456	715.7783655381572	-38.70383735032382	3593.929440200672	911.006081142099	222.69855766987672	3509.118405450535	914.0656557877758	364.0141157588548	3450.331550229706	726.0333459554732	409.5961799525074	3459.698639442063	631.1362137304955	438.62122587343083	3448.495629386111	619.1147814026087	472.76993925798723	3496.842309870103	706.4143466825334
279	4.65	454.2940837449382	3707.009964096512	651.8284539096328	833.0058629240846	3741.285622454008	647.9984665537746	1207.1484624207753	3731.474372196155	676.141764734748	1297.769630334347	3659.295686805819	662.2216018705834	1294.149945109339	3713.24034321685	612.6734645908839	1268.0138696420793	3784.411571336702	743.421460085993	460.1734564959376	3627.5127407625464	850.1546180709653	854.1054053395234	3651.9046759813236	865.1085161153086	1221.519898395291	3673.368700539784	852.6744428288587	1309.8177998960796	3562.55684365943	812.1263305261817	1283.3335370737996	3537.908169756137	844.649993483427	1251.0326043438251	3702.2633385497656	855.850014281844	-125.5347365569169	3651.8162231404353	754.6300680199846	-387.7463231413729	3574.685380968365	689.3499025427537	-236.20957719097865	3510.308645825629	660.1224119653193	-40.84305909784169	3708.104232756857	617.0026514166129	200.87155056165173	3677.607893628294	529.0510529581898	356.6007611423261	3559.5692362542245	632.1074566555575	409.2509162794407	3497.986623998815	692.5041588031168	429.79054578286156	3495.1989135612307	717.1615806888698	456.16447156391087	3510.213275331688	713.5474116174993	-38.73893153704279	3590.6928478825716	914.6416017493056	222.71456478641755	3508.8185827666307	913.8752293754576	363.94060380341136	3450.2658427386027	726.0301991480329	409.43102955178455	3457.009029844828	634.4025159106378	438.56535018004314	3448.783008434472	619.3379034890875	469.6987278762519	3476.6923414647486	700.2124789989839
